<?xml version="1.0" standalone="no"?>
<!DOCTYPE svg PUBLIC "-//W3C//DTD SVG 20010904//EN"
 "http://www.w3.org/TR/2001/REC-SVG-20010904/DTD/svg10.dtd">
<svg version="1.0" xmlns="http://www.w3.org/2000/svg"
 width="64.000000pt" height="64.000000pt" viewBox="0 0 64.000000 64.000000"
 preserveAspectRatio="xMidYMid meet">

<g transform="translate(0.000000,64.000000) scale(0.100000,-0.100000)"
fill="#000000" stroke="none">
<path d="M91 518 c-7 -15 -10 -51 -8 -80 l3 -53 4 65 c3 36 7 -27 10 -140 5
-197 6 -205 25 -205 19 0 20 8 23 220 l2 220 -23 0 c-17 0 -28 -9 -36 -27z
m49 -248 c0 -127 -2 -150 -15 -150 -13 0 -15 23 -15 150 0 127 2 150 15 150
13 0 15 -23 15 -150z"/>
<path d="M123 280 c0 -47 2 -66 4 -42 2 23 2 61 0 85 -2 23 -4 4 -4 -43z"/>
<path d="M197 543 c-13 -12 -8 -411 5 -419 6 -4 42 -6 80 -5 77 3 89 -11 40
-49 -24 -20 -24 -21 -2 -8 14 8 30 25 35 37 9 21 15 22 103 19 l92 -3 0 218 0
217 -173 0 c-96 0 -177 -3 -180 -7z m92 -6 c-2 -1 -11 -8 -20 -15 -13 -9 -16
-9 -16 3 0 8 9 15 20 15 11 0 18 -1 16 -3z m49 -9 c-2 -7 2 -12 7 -11 6 1 11
-7 12 -17 1 -11 -1 -19 -5 -17 -4 1 -7 -2 -7 -8 0 -5 3 -9 8 -7 4 1 7 -7 7
-18 0 -11 -3 -19 -7 -17 -5 1 -8 -2 -8 -8 0 -5 3 -9 7 -8 4 2 6 -6 5 -17 -1
-10 -4 -18 -7 -17 -3 1 -5 -2 -5 -8 0 -5 3 -9 7 -8 4 2 6 -6 5 -17 -1 -10 -4
-18 -7 -17 -3 1 -5 -2 -5 -8 0 -5 3 -9 7 -8 5 2 8 -2 8 -7 0 -14 -27 -13 -36
1 -4 8 -9 7 -15 -2 -7 -11 -12 -12 -28 -2 -15 10 -21 10 -24 0 -3 -7 -4 -2 -4
10 1 12 6 21 12 20 5 -1 9 6 9 15 -1 10 5 16 17 15 23 -2 24 -10 4 -27 -18
-15 -20 -33 -2 -27 6 2 11 10 9 16 -1 7 2 10 7 7 19 -12 22 16 4 36 -10 12
-13 18 -6 15 16 -10 27 11 14 27 -7 9 -7 16 0 23 14 14 2 36 -14 26 -7 -3 -4
3 6 15 11 11 16 26 12 32 -9 14 -25 3 -19 -13 2 -7 -4 -13 -14 -14 -11 -1 -18
5 -18 18 0 11 6 18 16 16 8 -1 14 4 13 11 -2 6 6 12 17 12 11 0 19 -6 18 -12z
m142 -193 l0 -205 -50 0 -50 0 0 205 0 205 50 0 50 0 0 -205z m60 0 c0 -176
-2 -205 -15 -205 -13 0 -15 29 -15 205 0 176 2 205 15 205 13 0 15 -29 15
-205z m-230 105 c0 -3 -8 -6 -19 -7 -12 -1 -18 5 -17 15 0 9 -4 16 -9 15 -6
-1 -11 6 -12 16 -1 15 3 14 28 -8 16 -14 29 -28 29 -31z m-10 -25 c22 14 8
-12 -19 -36 -25 -22 -29 -23 -28 -8 1 10 4 16 8 13 11 -7 21 14 13 27 -5 8 -9
8 -14 -1 -5 -7 -7 -2 -7 13 0 24 0 24 19 5 10 -10 23 -16 28 -13z m70 -165 l0
-40 -85 0 -85 0 0 40 0 40 85 0 85 0 0 -40z m-65 -60 c5 -8 11 -7 21 1 12 10
17 9 27 -1 9 -9 9 -11 0 -6 -14 8 -27 -10 -17 -25 4 -8 9 -7 15 2 6 10 8 8 7
-7 -1 -11 -10 -21 -20 -21 -10 -1 -17 1 -15 5 1 4 -2 7 -8 7 -5 0 -9 -2 -8 -5
1 -3 -7 -6 -17 -7 -11 -1 -19 4 -17 10 1 7 -3 11 -10 10 -6 -2 -11 6 -10 17 1
10 4 17 8 14 4 -2 10 0 14 6 8 13 22 13 30 0z"/>
<path d="M242 250 c0 -19 2 -27 5 -17 2 9 2 25 0 35 -3 9 -5 1 -5 -18z"/>
<path d="M270 264 c0 -15 23 -44 35 -44 12 0 35 29 35 44 0 12 -10 16 -35 16
-25 0 -35 -4 -35 -16z m60 -2 c0 -19 -23 -32 -37 -21 -20 17 -15 29 12 29 14
0 25 -4 25 -8z"/>
<path d="M281 181 c-10 -7 -10 -10 -1 -16 6 -4 16 -3 22 3 13 13 -4 23 -21 13z"/>
</g>
</svg>
